#!OML:ASF H:\BreakDance\Project 1\Capture day 1\Session 1\Male.ASF
:FULLY-SPECIFIED
:DEGREES
832
root 3.84849 6.38043 5.25255 174.393 -108.981 168.328
lowerback 31.8663 3.91694 4.27007
upperback 20.587 3.89975 -0.849604
thorax 6.48637 1.65462 -4.12603
lowerneck -24.9323 -4.42966 3.11253
upperneck 19.0265 -8.35701 4.3142
head 10.267 -3.06719 -0.285972
rclavicle 3.18055e-014 -4.92986e-014
rhumerus -16.3851 -5.08321 -93.2182
rradius 17.156
rwrist -26.5072
rhand -19.1079 -47.3737
rfingers 7.12502
rthumb 7.20096 -77.2312
lclavicle 3.18055e-014 -4.92986e-014
lhumerus -0.619798 9.06958 74.711
lradius 7.20878
lwrist -8.23204
lhand -20.7816 1.00919
lfingers 7.12502
lthumb 5.58519 30.9156
rfemur -100.556 -38.1458 11.1175
rtibia 132.93
rfoot -16.1184 21.7389
rtoes -3.30497
lfemur -113.594 38.3095 -16.5603
ltibia 130.973
lfoot -23.4386 -22.4369
ltoes -32.0112
833
root 3.90384 6.6058 5.20636 174.794 -108.964 169.738
lowerback 31.8254 3.77787 4.15373
upperback 20.333 3.72943 -0.994106
thorax 6.19459 1.57351 -4.18106
lowerneck -25.5884 -4.26467 3.34642
upperneck 18.4148 -8.14583 4.11487
head 10.1383 -2.99007 -0.363995
rclavicle 5.40694e-014 -9.54166e-014
rhumerus -13.7819 -5.64343 -92.3596
rradius 17.4581
rwrist -27.4089
rhand -19.3467 -46.8894
rfingers 7.12502
rthumb 6.97052 -76.7547
lclavicle 5.40694e-014 -9.54166e-014
lhumerus 1.4951 8.46422 75.7679
lradius 8.57809
lwrist -9.47483
lhand -17.3427 -0.707622
lfingers 7.12502
lthumb 8.90469 29.0845
rfemur -100.556 -36.2097 11.4353
rtibia 131.507
rfoot -16.182 20.074
rtoes -3.88668
lfemur -112.23 36.0423 -16.099
ltibia 129.221
lfoot -23.4992 -19.8278
ltoes -31.9446
834
root 3.95942 6.83469 5.15864 175.285 -108.947 171.004
lowerback 31.7442 3.65296 4.04724
upperback 20.0842 3.57945 -1.14946
thorax 5.9282 1.50553 -4.25545
lowerneck -26.1776 -4.11773 3.57975
upperneck 17.8798 -8.00809 4.06591
head 10.0349 -2.9278 -0.399978
rclavicle -1.55052e-014 2.16675e-014
rhumerus -11.1932 -6.30403 -91.6019
rradius 17.77
rwrist -27.7475
rhand -19.5243 -45.9484
rfingers 7.12502
rthumb 6.79908 -75.8192
lclavicle -1.55052e-014 2.16675e-014
lhumerus 3.6805 7.77639 76.6565
lradius 9.95393
lwrist -10.1854
lhand -14.2857 -2.74035
lfingers 7.12502
lthumb 11.8536 26.9041
rfemur -100.472 -34.27 11.6913
rtibia 130.024
rfoot -16.2671 18.4022
rtoes -4.6128
lfemur -110.94 33.8765 -15.6661
ltibia 127.38
lfoot -23.5899 -17.4889
ltoes -32.1338
835
root 4.01509 7.06501 5.11024 176.004 -108.938 171.965
lowerback 31.6121 3.52133 4.00608
upperback 19.8419 3.43715 -1.2977
thorax 5.69446 1.44837 -4.3567
lowerneck -26.6939 -3.98283 3.80442
upperneck 17.4333 -7.91974 4.12793
head 9.95756 -2.87405 -0.403008
rclavicle -4.09496e-014 4.35338e-014
rhumerus -8.62152 -7.00518 -90.9316
rradius 18.0596
rwrist -27.237
rhand -19.7091 -44.4324
rfingers 7.12502
rthumb 6.62069 -74.3089
lclavicle -4.09496e-014 4.35338e-014
lhumerus 5.92351 7.03196 77.4071
lradius 11.3066
lwrist -10.3469
lhand -11.8932 -5.10188
lfingers 7.12502
lthumb 14.1599 24.3956
rfemur -100.301 -32.3516 11.9379
rtibia 128.481
rfoot -16.3289 16.7747
rtoes -5.30257
lfemur -109.754 31.8521 -15.2271
ltibia 125.475
lfoot -23.6959 -15.5958
ltoes -32.5238
836
root 4.0712 7.29477 5.0624 176.876 -108.965 172.727
lowerback 31.3817 3.36683 4.0176
upperback 19.6106 3.27978 -1.43708
thorax 5.51261 1.39007 -4.47047
lowerneck -27.1483 -3.85376 3.99344
upperneck 17.077 -7.85008 4.25989
head 9.90718 -2.82073 -0.378768
rclavicle -3.37934e-015 1.39149e-015
rhumerus -6.04505 -7.69254 -90.3208
rradius 18.3134
rwrist -25.6995
rhand -20.0069 -42.3108
rfingers 7.12502
rthumb 6.33319 -72.1961
lclavicle -3.37934e-015 1.39149e-015
lhumerus 8.1602 3.76658 77.6814
lradius 12.6726
lwrist -7.66397
lhand -10.827 -7.41565
lfingers 7.12502
lthumb 15.1872 22.007
rfemur -100.08 -30.5401 12.1528
rtibia 126.878
rfoot -16.3756 15.2756
rtoes -5.94219
lfemur -108.712 29.9077 -14.828
ltibia 123.525
lfoot -23.801 -14.1695
ltoes -33.0041
837
root 4.12777 7.52286 5.01469 177.916 -109.03 173.275
lowerback 31.0341 3.19348 4.07219
upperback 19.4001 3.10828 -1.5516
thorax 5.39973 1.32905 -4.57513
lowerneck -27.5535 -3.72738 4.12379
upperneck 16.8034 -7.77898 4.43985
head 9.88276 -2.76231 -0.328327
rclavicle -3.3197e-014 9.74045e-015
rhumerus -3.44754 -8.25436 -89.7401
rradius 18.5777
rwrist -23.1707
rhand -20.5658 -39.7438
rfingers 7.12502
rthumb 5.7936 -69.6446
lclavicle -3.3197e-014 9.74045e-015
lhumerus 10.4345 1.16091 77.7678
lradius 14.0622
lwrist -5.43066
lhand -10.8516 -9.99737
lfingers 7.12502
lthumb 15.1634 19.4271
rfemur -99.8187 -28.8405 12.3565
rtibia 125.217
rfoot -16.4181 13.9344
rtoes -6.59308
lfemur -107.811 28.05 -14.4566
ltibia 121.529
lfoot -23.889 -13.2193
ltoes -33.4735
838
root 4.18471 7.7488 4.96628 179.117 -109.128 173.608
lowerback 30.5819 3.01012 4.14937
upperback 19.2111 2.92747 -1.62911
thorax 5.35135 1.26436 -4.64909
lowerneck -27.9121 -3.60077 4.19502
upperneck 16.6083 -7.69308 4.63677
head 9.88141 -2.69618 -0.260264
rclavicle -3.35946e-014 1.90833e-014
rhumerus -0.853672 -8.55085 -89.1551
rradius 18.955
rwrist -19.8367
rhand -21.5597 -37.0741
rfingers 7.12502
rthumb 4.83389 -66.9989
lclavicle -3.35946e-014 1.90833e-014
lhumerus 12.756 -0.949631 77.6936
lradius 15.433
lwrist -3.69601
lhand -12.0798 -12.7867
lfingers 7.12502
lthumb 13.9801 16.7232
rfemur -99.5207 -27.2359 12.5626
rtibia 123.5
rfoot -16.4311 12.7812
rtoes -7.13465
lfemur -107.014 26.3042 -14.0927
ltibia 119.488
lfoot -23.8832 -12.5568
ltoes -33.5874
839
root 4.24196 7.97279 4.91706 180.398 -109.258 173.799
lowerback 30.0575 2.82382 4.22766
upperback 19.0359 2.74113 -1.67055
thorax 5.34647 1.19535 -4.68401
lowerneck -28.2372 -3.47385 4.21923
upperneck 16.4949 -7.58885 4.81675
head 9.90416 -2.62336 -0.187886
rclavicle 5.53615e-014 -4.55217e-014
rhumerus 1.70632 -8.52545 -88.5219
rradius 19.5393
rwrist -15.9798
rhand -22.959 -34.7657
rfingers 7.12502
rthumb 3.48269 -64.717
lclavicle 5.53615e-014 -4.55217e-014
lhumerus 15.1193 -2.71406 77.4641
lradius 16.7692
lwrist -2.49885
lhand -14.4315 -15.6357
lfingers 7.12502
lthumb 11.713 14.0168
rfemur -99.1976 -25.7315 12.7629
rtibia 121.735
rfoot -16.3973 11.8342
rtoes -7.48565
lfemur -106.285 24.6721 -13.7431
ltibia 117.409
lfoot -23.8823 -12.2104
ltoes -33.7204
840
root 4.29938 8.19579 4.86677 181.654 -109.413 173.941
lowerback 29.3107 2.65476 4.28526
upperback 18.7596 2.53409 -1.55012
thorax 5.6716 1.13115 -4.79994
lowerneck -28.5267 -3.34642 4.24359
upperneck 16.4464 -7.47568 4.95077
head 9.94146 -2.54956 -0.129907
rclavicle -1.58034e-014 1.04362e-014
rhumerus 4.21298 -8.18387 -87.8035
rradius 20.3828
rwrist -12.0136
rhand -24.5226 -33.2139
rfingers 7.12502
rthumb 1.97263 -63.1845
lclavicle -1.58034e-014 1.04362e-014
lhumerus 17.5073 -4.24985 77.0692
lradius 18.1005
lwrist -1.80704
lhand -17.6384 -18.2993
lfingers 7.12502
lthumb 8.61934 11.5048
rfemur -98.8443 -24.3363 12.9461
rtibia 119.929
rfoot -16.3282 11.0766
rtoes -7.67439
lfemur -105.575 23.1574 -13.4219
ltibia 115.3
lfoot -23.9033 -11.895
ltoes -33.9714
841
root 4.35683 8.4188 4.81551 182.781 -109.57 174.12
lowerback 28.7951 2.50127 4.29648
upperback 18.5943 2.37156 -1.55509
thorax 5.67436 1.06332 -4.75804
lowerneck -28.7682 -3.21883 4.30363
upperneck 16.4356 -7.35959 5.01628
head 9.9792 -2.47973 -0.100375
rclavicle 3.53837e-014 -7.79236e-014
rhumerus 6.64914 -7.54027 -86.9579
rradius 21.4912
rwrist -8.41279
rhand -25.936 -32.5367
rfingers 7.12502
rthumb 0.607527 -62.5156
lclavicle 3.53837e-014 -7.79236e-014
lhumerus 19.9114 -5.60121 76.5188
lradius 19.4674
lwrist -1.5308
lhand -21.2506 -20.4913
lfingers 7.12502
lthumb 5.13239 9.42653
rfemur -98.4416 -23.0431 13.0938
rtibia 118.087
rfoot -16.2387 10.4778
rtoes -7.77738
lfemur -104.821 21.785 -13.1343
ltibia 113.179
lfoot -23.9973 -11.4704
ltoes -34.4016
842
root 4.41431 8.64242 4.76416 183.74 -109.697 174.36
lowerback 28.3217 2.39003 4.25261
upperback 18.4369 2.24814 -1.54266
thorax 5.67003 1.00732 -4.67668
lowerneck -28.968 -3.10073 4.38162
upperneck 16.4542 -7.24742 5.01833
head 10.0165 -2.41782 -0.0960776
rclavicle 4.12478e-014 -6.21202e-014
rhumerus 9.01044 -6.65209 -85.9398
rradius 22.8289
rwrist -5.67009
rhand -26.9146 -32.5724
rfingers 7.12502
rthumb -0.337567 -62.5519
lclavicle 4.12478e-014 -6.21202e-014
lhumerus 22.3153 -6.78571 75.8407
lradius 20.9169
lwrist -1.52486
lhand -24.7776 -21.9978
lfingers 7.12502
lthumb 1.7264 7.97497
rfemur -97.9746 -21.8359 13.2057
rtibia 116.207
rfoot -16.1468 9.98654
rtoes -8.00163
lfemur -103.986 20.5757 -12.8696
ltibia 111.07
lfoot -24.1751 -10.8527
ltoes -34.9563
